<svg width="68" height="87" viewBox="0 0 68 87" fill="none" xmlns="http://www.w3.org/2000/svg">
<path d="M57.1993 0.000347795C55.7822 -0.0203251 54.477 0.794769 53.8628 2.04561C53.7123 2.36674 49.7541 10.2754 37.8869 8.85423C29.7255 7.88293 17.0228 10.1547 7.97195 19.6773C-3.77088 32.0786 -2.36152 51.8747 11.0169 65.0546C10.9849 58.4373 12.1915 52.4004 14.7069 47.0329C20.7606 34.1754 32.1808 30.0436 32.4475 29.8329L32.8619 30.9783C27.9458 34.4571 24.0128 39.1479 21.4445 44.5953C16.1556 55.8808 16.5151 70.0373 22.5482 86.7129L29.2858 84.2752C27.8842 80.4011 26.8646 76.8459 26.1906 73.5086C28.9137 74.0854 31.7508 74.24 34.5978 73.8957C37.0162 73.6303 39.3128 73.028 41.5025 72.2358C49.6887 69.2741 55.9636 63.3465 58.6147 59.3015C63.0762 52.468 66.5449 46.2603 67.6062 33.6089C68.5807 21.5604 60.7756 2.9353 60.4157 2.15117C60.1454 1.51971 59.6976 0.980324 59.1266 0.598514C58.5556 0.216704 57.8861 0.00889966 57.1993 0.000347795Z" fill="#8ACD75"/>
</svg>
