<svg width="45" height="45" viewBox="0 0 45 45" fill="none" xmlns="http://www.w3.org/2000/svg">
<circle cx="22.5" cy="22.5" r="22.5" fill="#E3E6CD"/>
<path d="M31 20.3335H25.6667V15.0002C25.6667 14.2929 25.3858 13.6146 24.8857 13.1145C24.3856 12.6144 23.7073 12.3335 23 12.3335C22.2928 12.3335 21.6145 12.6144 21.1144 13.1145C20.6143 13.6146 20.3334 14.2929 20.3334 15.0002L20.428 20.3335H15C14.2928 20.3335 13.6145 20.6144 13.1144 21.1145C12.6143 21.6146 12.3334 22.2929 12.3334 23.0002C12.3334 23.7074 12.6143 24.3857 13.1144 24.8858C13.6145 25.3859 14.2928 25.6668 15 25.6668L20.428 25.5722L20.3334 31.0002C20.3334 31.7074 20.6143 32.3857 21.1144 32.8858C21.6145 33.3859 22.2928 33.6668 23 33.6668C23.7073 33.6668 24.3856 33.3859 24.8857 32.8858C25.3858 32.3857 25.6667 31.7074 25.6667 31.0002V25.5722L31 25.6668C31.7073 25.6668 32.3856 25.3859 32.8857 24.8858C33.3858 24.3857 33.6667 23.7074 33.6667 23.0002C33.6667 22.2929 33.3858 21.6146 32.8857 21.1145C32.3856 20.6144 31.7073 20.3335 31 20.3335Z" fill="#609516"/>
</svg>
