<svg width="44" height="44" viewBox="0 0 44 44" fill="none" xmlns="http://www.w3.org/2000/svg">
<circle cx="22" cy="22" r="22" fill="#E3E6CD"/>
<path opacity="0.5" d="M19.2225 33.2501H24.7775C28.6788 33.2501 30.63 33.2501 32.0312 32.3313C32.636 31.9352 33.1568 31.4238 33.5637 30.8263C34.5 29.4513 34.5 27.5351 34.5 23.7051C34.5 19.8751 34.5 17.9588 33.5637 16.5838C33.1568 15.9863 32.636 15.4749 32.0312 15.0788C31.1313 14.4876 30.0037 14.2763 28.2775 14.2013C27.4537 14.2013 26.745 13.5888 26.5837 12.7951C26.4605 12.2136 26.1403 11.6926 25.6773 11.32C25.2143 10.9474 24.6368 10.7461 24.0425 10.7501H19.9575C18.7225 10.7501 17.6588 11.6063 17.4163 12.7951C17.255 13.5888 16.5463 14.2013 15.7225 14.2013C13.9975 14.2763 12.87 14.4888 11.9688 15.0788C11.3644 15.475 10.8441 15.9864 10.4375 16.5838C9.5 17.9588 9.5 19.8738 9.5 23.7051C9.5 27.5363 9.5 29.4501 10.4363 30.8263C10.8413 31.4213 11.3612 31.9326 11.9688 32.3313C13.37 33.2501 15.3212 33.2501 19.2225 33.2501Z" fill="#609516"/>
<path d="M28.945 18.5899C28.8094 18.5887 28.6749 18.6143 28.5492 18.6651C28.4235 18.716 28.309 18.791 28.2123 18.8861C28.1156 18.9812 28.0386 19.0944 27.9857 19.2192C27.9327 19.344 27.9049 19.4781 27.9037 19.6136C27.9037 20.1786 28.37 20.6361 28.945 20.6361H30.3337C30.9087 20.6361 31.3762 20.1774 31.3762 19.6136C31.3751 19.4779 31.3472 19.3438 31.2942 19.2189C31.2412 19.094 31.164 18.9807 31.0672 18.8857C30.9704 18.7906 30.8558 18.7155 30.7299 18.6648C30.6041 18.614 30.4694 18.5886 30.3337 18.5899H28.945Z" fill="#609516"/>
<path fill-rule="evenodd" clip-rule="evenodd" d="M22 18.5898C19.125 18.5898 16.7925 20.8798 16.7925 23.7036C16.7925 26.5273 19.1237 28.8173 22.0012 28.8173C24.8763 28.8173 27.2087 26.5286 27.2087 23.7048C27.2087 20.8811 24.8775 18.5898 22.0012 18.5898M22.0012 20.6361C20.2762 20.6361 18.8762 22.0098 18.8762 23.7036C18.8762 25.3973 20.2762 26.7723 22.0012 26.7723C23.7275 26.7723 25.1263 25.3986 25.1263 23.7036C25.1263 22.0098 23.7275 20.6361 22.0012 20.6361Z" fill="#609516"/>
</svg>
