<svg width="44" height="44" viewBox="0 0 44 44" fill="none" xmlns="http://www.w3.org/2000/svg">
<circle cx="22" cy="22" r="22" fill="#E3E6CD"/>
<path d="M23 10.6001C24.5706 10.601 26.1205 10.9576 27.5335 11.6431C28.9466 12.3287 30.186 13.3253 31.1588 14.5583C32.1316 15.7913 32.8125 17.2286 33.1504 18.7624C33.4883 20.2961 33.4745 21.8865 33.1099 23.4142C32.7454 24.9418 32.0396 26.3671 31.0455 27.5829C30.0514 28.7988 28.7948 29.7738 27.3701 30.4346C25.9453 31.0955 24.3894 31.425 22.8191 31.3986C21.2488 31.3722 19.7048 30.9905 18.3031 30.2821L18.1458 30.1976L13.4073 31.3806C13.3161 31.4035 13.221 31.4064 13.1286 31.389C13.0362 31.3716 12.9487 31.3344 12.872 31.2799C12.7954 31.2254 12.7315 31.1549 12.6848 31.0733C12.638 30.9917 12.6096 30.901 12.6013 30.8073V30.7007L12.6195 30.5928L13.8025 25.8556L13.7206 25.6996C13.1272 24.5279 12.7611 23.2544 12.6416 21.9465L12.6091 21.4499L12.6 21.0001C12.6009 20.2868 12.6702 19.5939 12.808 18.9214V18.9201C12.8252 18.8331 12.8598 18.7504 12.9097 18.6771C12.9596 18.6038 13.0238 18.5414 13.0985 18.4935C13.1732 18.4457 13.2568 18.4134 13.3443 18.3987C13.4317 18.384 13.5213 18.3871 13.6075 18.4079C14.0066 18.5119 14.1444 18.9201 14.0664 19.2802L14.0508 19.3439C13.6677 21.4362 14.0253 23.5967 15.0622 25.4539C15.1225 25.5616 15.1509 25.6843 15.1441 25.8075L15.1259 25.9297L14.1431 29.857L18.0743 28.8768C18.1542 28.857 18.2372 28.8526 18.3187 28.8638L18.437 28.8911L18.5501 28.9418C20.0872 29.8029 21.8412 30.1993 23.5993 30.0828C25.3573 29.9663 27.0437 29.342 28.4537 28.2856C29.8638 27.2292 30.9369 25.7863 31.5427 24.1318C32.1486 22.4774 32.2611 20.6827 31.8667 18.9655C31.4723 17.2484 30.5878 15.6826 29.3208 14.4584C28.0537 13.2341 26.4585 12.4041 24.7288 12.0689C22.9991 11.7337 21.2093 11.9079 19.5767 12.5702C17.944 13.2325 16.5388 14.3546 15.5315 15.8001H18.45C18.6224 15.8001 18.7877 15.8686 18.9096 15.9905C19.0315 16.1124 19.1 16.2777 19.1 16.4501C19.1 16.6225 19.0315 16.7878 18.9096 16.9097C18.7877 17.0316 18.6224 17.1001 18.45 17.1001H14.55C14.3776 17.1001 14.2123 17.0316 14.0904 16.9097C13.9685 16.7878 13.9 16.6225 13.9 16.4501V12.5501C13.9 12.3777 13.9685 12.2124 14.0904 12.0905C14.2123 11.9686 14.3776 11.9001 14.55 11.9001C14.7224 11.9001 14.8877 11.9686 15.0096 12.0905C15.1315 12.2124 15.2 12.3777 15.2 12.5501V14.1205C16.1749 13.0127 17.375 12.1256 18.7201 11.5185C20.0652 10.9115 21.5243 10.5984 23 10.6001ZM15.6433 18.4001C15.3519 19.2271 15.202 20.0973 15.2 20.9741L15.2078 21.3368L15.2338 21.7411C15.3254 22.7037 15.5952 23.6409 16.0294 24.5049L16.5663 25.5189L15.9293 28.0708L18.4864 27.4338L19.5004 27.9733C20.7261 28.5879 22.0921 28.8685 23.4608 28.7869C24.8294 28.7053 26.1524 28.2644 27.2964 27.5086C28.4404 26.7527 29.3649 25.7087 29.9768 24.4817C30.5887 23.2547 30.8664 21.8881 30.7818 20.5196C30.6972 19.1511 30.2534 17.8291 29.495 16.6867C28.7367 15.5444 27.6906 14.6222 26.4623 14.013C25.234 13.4038 23.8667 13.1291 22.4984 13.2167C21.1301 13.3043 19.8091 13.751 18.6684 14.5118C19.1645 14.5664 19.6209 14.8091 19.9434 15.1901C20.2659 15.571 20.4301 16.0611 20.4021 16.5595C20.3741 17.0578 20.1561 17.5265 19.7929 17.8689C19.4298 18.2113 18.9491 18.4014 18.45 18.4001H15.6433ZM23 17.7501V22.3001H26.25C26.4224 22.3001 26.5877 22.3686 26.7096 22.4905C26.8315 22.6124 26.9 22.7777 26.9 22.9501C26.9 23.1225 26.8315 23.2878 26.7096 23.4097C26.5877 23.5316 26.4224 23.6001 26.25 23.6001H22.35C22.1776 23.6001 22.0123 23.5316 21.8904 23.4097C21.7685 23.2878 21.7 23.1225 21.7 22.9501V17.7501C21.7 17.5777 21.7685 17.4124 21.8904 17.2905C22.0123 17.1686 22.1776 17.1001 22.35 17.1001C22.5224 17.1001 22.6877 17.1686 22.8096 17.2905C22.9315 17.4124 23 17.5777 23 17.7501Z" fill="#609516"/>
</svg>
