<svg width="44" height="44" viewBox="0 0 44 44" fill="none" xmlns="http://www.w3.org/2000/svg">
<circle cx="22" cy="22" r="22" fill="#E3E6CD"/>
<path fill-rule="evenodd" clip-rule="evenodd" d="M12 18.25C12.2486 18.25 12.4871 18.3488 12.6629 18.5246C12.8387 18.7004 12.9375 18.9389 12.9375 19.1875V20.4375C12.9375 21.6276 13.1719 22.8061 13.6273 23.9056C14.0828 25.0051 14.7503 26.0041 15.5918 26.8457C16.4334 27.6872 17.4324 28.3547 18.5319 28.8102C19.6314 29.2656 20.8099 29.5 22 29.5C23.1901 29.5 24.3686 29.2656 25.4681 28.8102C26.5676 28.3547 27.5666 27.6872 28.4082 26.8457C29.2497 26.0041 29.9172 25.0051 30.3727 23.9056C30.8281 22.8061 31.0625 21.6276 31.0625 20.4375V19.1875C31.0625 18.9389 31.1613 18.7004 31.3371 18.5246C31.5129 18.3488 31.7514 18.25 32 18.25C32.2486 18.25 32.4871 18.3488 32.6629 18.5246C32.8387 18.7004 32.9375 18.9389 32.9375 19.1875V20.4375C32.9376 23.1761 31.9103 25.815 30.0587 27.8328C28.2071 29.8505 25.666 31.1003 22.9375 31.335V34.1875C22.9375 34.4361 22.8387 34.6746 22.6629 34.8504C22.4871 35.0262 22.2486 35.125 22 35.125C21.7514 35.125 21.5129 35.0262 21.3371 34.8504C21.1613 34.6746 21.0625 34.4361 21.0625 34.1875V31.335C18.334 31.1003 15.7929 29.8505 13.9413 27.8328C12.0897 25.815 11.0624 23.1761 11.0625 20.4375V19.1875C11.0625 18.9389 11.1613 18.7004 11.3371 18.5246C11.5129 18.3488 11.7514 18.25 12 18.25Z" fill="#609516"/>
<path opacity="0.5" d="M22 9.5C20.0938 9.5 18.2656 10.2573 16.9177 11.6052C15.5698 12.9531 14.8125 14.7813 14.8125 16.6875V20.4375C14.8098 22.2643 15.5027 24.0236 16.7505 25.3578C17.9984 26.692 19.7074 27.501 21.5303 27.6204C23.3532 27.7398 25.1531 27.1606 26.5643 26.0005C27.9755 24.8404 28.892 23.1866 29.1275 21.375H23.25C23.0014 21.375 22.7629 21.2762 22.5871 21.1004C22.4113 20.9246 22.3125 20.6861 22.3125 20.4375C22.3125 20.1889 22.4113 19.9504 22.5871 19.7746C22.7629 19.5988 23.0014 19.5 23.25 19.5H29.1875V17.625H23.25C23.0014 17.625 22.7629 17.5262 22.5871 17.3504C22.4113 17.1746 22.3125 16.9361 22.3125 16.6875C22.3125 16.4389 22.4113 16.2004 22.5871 16.0246C22.7629 15.8488 23.0014 15.75 23.25 15.75H29.1263C28.8988 14.021 28.0505 12.4337 26.7394 11.2838C25.4283 10.1339 23.7439 9.49996 22 9.5Z" fill="#609516"/>
<path d="M22.3125 20.4375C22.3125 20.955 22.7325 21.375 23.25 21.375H29.1263L29.1875 19.5H23.25C23.0014 19.5 22.7629 19.5988 22.5871 19.7746C22.4113 19.9504 22.3125 20.1889 22.3125 20.4375ZM22.3125 16.6875C22.3125 17.205 22.7325 17.625 23.25 17.625H29.1875L29.1263 15.75H23.25C23.0014 15.75 22.7629 15.8488 22.5871 16.0246C22.4113 16.2004 22.3125 16.4389 22.3125 16.6875Z" fill="#609516"/>
</svg>
